<svg id="Ebene_1" data-name="Ebene 1" xmlns="http://www.w3.org/2000/svg" viewBox="0 0 141.73 141.73"><defs><style>.cls-1{fill:#fff;}</style></defs><path class="cls-1" d="M70.87,0a70.87,70.87,0,1,0,70.86,70.87A70.95,70.95,0,0,0,70.87,0Zm0,10.47a60.39,60.39,0,0,1,57.54,78.72l-3.68-6a2.26,2.26,0,0,1-.33-.13L98.77,69.32s-1.56-.81-1.34-1.45,2.18-.09,2.18-.09l17.92,5.5a.52.52,0,0,0,.61-.8l-10-16.42a.43.43,0,0,0-.18-.15L94.3,51.41s-.81-.22-.66-.86S94.93,50,94.93,50l9,.93c.52,0,.88-.4.58-.81,0,0-5.78-9.41-8.46-14-3.13-5.31-13.92-13.68-32.56-11-5.89.84-9.74,4.84-13.57,10-13.35,6.65-6,16.71-6.07,15.23-.13-3,1.71-3.2,1.71-3.2,1.29,0,5.48-.28,5.78.34l.29,80.58c-1.83-.61-3.61-1.31-5.36-2.09l2.63-48h0L35.12,93.31l4.49-1.6c1.06-.32,1.87-.45,2-.08s-.42.86-1.44,1.47L29.71,99.36l-7,7.86a60.36,60.36,0,0,1,48.2-96.75ZM62.16,34.26a3.08,3.08,0,0,1,.11-1l5.88.65a3,3,0,0,1-6,.36Zm14.32,66.27.12-.06c.32-.09.64.31,1,1l4.16,9.45c.2.65.1,1.27-.22,1.37l-3.06.94c-.32.1-.75-.35-1-1l-1.2-10.41C76.22,101.11,76.21,100.67,76.48,100.53ZM94,125.34l-3.4-15c-.22-1-.31-1.66,0-1.85l.12-.07c.34-.13.77.47,1.26,1.5l6.45,13.77a3.62,3.62,0,0,1,.22.79c-1.31.68-2.65,1.33-4,1.91A4.11,4.11,0,0,1,94,125.34Zm9.12-20.59-2.91,1.33c-.3.14-.79-.25-1.07-.88L96.59,95c-.16-.7-.22-1.13,0-1.31l.11-.07c.31-.14.68.22,1.08.88l5.34,8.83C103.44,104,103.42,104.61,103.11,104.75Z"/></svg>