<svg id="Ebene_1" data-name="Ebene 1" xmlns="http://www.w3.org/2000/svg" viewBox="0 0 141.73 141.73"><defs><style>.cls-1{fill:#fff;}</style></defs><polygon class="cls-1" points="64.27 21.33 58.3 21.2 57.87 40.13 63.85 40.13 64.27 21.33"/><polygon class="cls-1" points="56.06 40.13 55.99 14.41 50.01 14.43 50.08 40.13 56.06 40.13"/><polygon class="cls-1" points="73.78 18.48 67.84 17.82 65.35 40.13 71.36 40.13 73.78 18.48"/><path class="cls-1" d="M79.4,41.68,83,29.31,77.2,27.66,73.62,40.14A12.35,12.35,0,0,1,79.4,41.68Z"/><polygon class="cls-1" points="48.25 40.13 47.83 21.2 41.85 21.33 42.27 40.13 48.25 40.13"/><path class="cls-1" d="M66.06,59.6H80.73L81.36,52a7.82,7.82,0,0,0-8-7.64H32A7.83,7.83,0,0,0,24,52l3.48,41.72a7.81,7.81,0,0,0,8,7.63H56.14L54.46,71v-.12A11.48,11.48,0,0,1,66.06,59.6Z"/><path class="cls-1" d="M70.87,0a70.87,70.87,0,1,0,70.86,70.87A70.95,70.95,0,0,0,70.87,0ZM10.47,70.87a60.13,60.13,0,0,1,13.25-37.7l2.14,8.59a12.37,12.37,0,0,1,5.77-1.61L28.55,27.82c1.4-1.38,2.87-2.68,4.4-3.92l1.81,16.23h6L38.52,19.9A60.28,60.28,0,0,1,119.44,35L97.36,38.26l-9,25.58H66.06a7.24,7.24,0,0,0-7.36,7.07L61.92,129a6.74,6.74,0,0,0,.2,1.63A60.48,60.48,0,0,1,10.47,70.87Zm62.19,32.57a4.67,4.67,0,1,1,0,9.33,4.67,4.67,0,0,1,0-9.33ZM68,89.67A4.57,4.57,0,0,1,72.66,85a4.67,4.67,0,1,1,0,9.33A4.57,4.57,0,0,1,68,89.67ZM85.26,92a4.66,4.66,0,1,1,0,9.32,4.66,4.66,0,0,1,0-9.32ZM80.6,78.21a4.57,4.57,0,0,1,4.66-4.66,4.67,4.67,0,1,1,0,9.33A4.57,4.57,0,0,1,80.6,78.21Zm4.66,35.92a4.67,4.67,0,1,1,0,9.33,4.67,4.67,0,0,1,0-9.33Zm8.32-6.79a4.56,4.56,0,0,1,4.66-4.66,4.66,4.66,0,1,1,0,9.32A4.56,4.56,0,0,1,93.58,107.34Zm4.66-13.77a4.67,4.67,0,0,1,0-9.33,4.67,4.67,0,1,1,0,9.33Zm11,23.92,2.58-46.58a7.24,7.24,0,0,0-7.37-7.07H97.86L104,46.35l20.58-3a60.29,60.29,0,0,1-15.38,74.15Z"/></svg>