<svg id="Ebene_1" data-name="Ebene 1" xmlns="http://www.w3.org/2000/svg" xmlns:xlink="http://www.w3.org/1999/xlink" viewBox="0 0 62 46.53"><defs><style>.cls-1{fill:none;}.cls-2{clip-path:url(#clip-path);}.cls-3{fill:#fff;}</style><clipPath id="clip-path"><rect class="cls-1" width="62" height="46.53"/></clipPath></defs><g class="cls-2"><path class="cls-3" d="M59,30.46C57.22-9.9,1.23-10.22.42,29.92l2.42-2.21c0,.24,0,.48,0,.72,0,4.15,1.37,11.46,4.29,15.25a5.47,5.47,0,0,0,4.36,2.09h8.46a3.81,3.81,0,0,0,1.93-.53,2,2,0,0,1,2.07,0,3.81,3.81,0,0,0,1.93.53H36.94a3.82,3.82,0,0,0,2-.55,2,2,0,0,1,2.15,0,3.82,3.82,0,0,0,2,.55h7.1a5.06,5.06,0,0,0,4.34-2.45c.87-1.47,1.44-3.29,2.1-4.62,2.42.74,5.25-.35,5.41-3.27.24-2.23-2.18-3.18-3-5m-4,5.17c-2.6,8.69-3.36,7.63-10.71,7.56H43c-2-.36-1.46-4.12-3.67-4.37-2.43.11,0,4.22-2.42,4.37H25.86c-2.21-.29-.65-2.78.16-3.78,2-3-8.22-3-6.25,0,.8,1,2.38,3.49.16,3.78H11c-2.9-.25-3-4.16-3.61-6.4C6.36,30.47,11.79,25.47,18,26c13-.69,14.65,13,25.28,7.65-3.66-3.43.7-4.42,3.77-4.17h0c-6.24-4.28-8.2-12.35-14.52-16.55C29,10.19,24.23,7.85,20,10.13A26.55,26.55,0,0,1,29.79,15h0a26.06,26.06,0,0,1,2.09,1.83h0a26.6,26.6,0,0,1,6.9,11.27c-4.75,4.24-3.19.58-7.26-2.39a2.22,2.22,0,0,0,.68-1.78,2.22,2.22,0,0,1-2.8-2,2.23,2.23,0,0,0-1.48,1.31,19.39,19.39,0,0,0-17.23-.65,20,20,0,0,1,3-3.34A19.35,19.35,0,0,0,3.14,24.15c.07-.49.15-1,.25-1.44C10.93-7.57,55.1-3,56,28.94h0a9.09,9.09,0,0,0,3.16,5.48C61,37.27,56.33,36.48,55,35.63"/></g></svg>