<svg id="Ebene_1" data-name="Ebene 1" xmlns="http://www.w3.org/2000/svg" viewBox="0 0 141.73 141.73"><defs><style>.cls-1{fill:#fff;}.cls-2{fill:none;}</style></defs><path class="cls-1" d="M70.87,141.73a70.87,70.87,0,1,1,70.86-70.86,70.95,70.95,0,0,1-70.86,70.86m0-131.26a60.4,60.4,0,1,0,60.4,60.4,60.46,60.46,0,0,0-60.4-60.4"/><rect class="cls-2" width="141.73" height="141.73"/><path class="cls-1" d="M56,42.78H54.62V41.1a13.23,13.23,0,0,0-24.18-7.4A13.27,13.27,0,0,0,13.09,46.3a3.49,3.49,0,0,0,3.49,3.49l39.43,0a3.49,3.49,0,1,0,0-7Z"/><path class="cls-1" d="M10.74,66.19a4,4,0,0,0-4.31,4.06v9.68L7.64,92.11,18.4,112.34c20.3-9.4,46.65-20,73.75-26.32C65.87,75.44,38.91,67.93,10.74,66.19Z"/><path class="cls-1" d="M21.19,115.35,42,131.59H97.8l26.64-22.08L135.3,84.76v-.07C115,84.69,77.11,89.46,21.19,115.35Z"/><path class="cls-1" d="M118.31,58.65a7.94,7.94,0,0,0-2.06-5.35,8.92,8.92,0,0,0,.09-1.16,8,8,0,0,0-7.11-7.94,8,8,0,0,0-12.61-1.88,8,8,0,0,0-11.47,7.19,7.86,7.86,0,0,0,.37,2.39,8,8,0,0,0-1.37,12.41,7.9,7.9,0,0,0-1,3.81,8,8,0,0,0,12.89,6.31,12.07,12.07,0,0,0,1.71.36V90.45h4.43V74.79a13.77,13.77,0,0,0,2-.42,8,8,0,0,0,11.92-10.19A7.94,7.94,0,0,0,118.31,58.65Z"/></svg>