<svg id="Ebene_1" data-name="Ebene 1" xmlns="http://www.w3.org/2000/svg" viewBox="0 0 141.73 141.73"><defs><style>.cls-1{fill:#fff;}</style></defs><path class="cls-1" d="M102,99.05a23.15,23.15,0,0,0,4-13A23.5,23.5,0,0,0,95.82,66.66c-.45-.3-.9-.59-1.38-.85A23.2,23.2,0,0,0,82.5,62.53,23.47,23.47,0,0,0,61.86,97.08a9.32,9.32,0,0,0,.6,1,23.36,23.36,0,0,0,33.32,7.25l2.12.56,4.8-4.8Zm-19.45,3.8a16.62,16.62,0,0,1-13.64-7.07,16.08,16.08,0,0,1-2-3.53A16.54,16.54,0,0,1,65.69,86,16.85,16.85,0,0,1,89.38,70.68,16.54,16.54,0,0,1,93.1,73a16.82,16.82,0,0,1-10.6,29.9Z"/><path class="cls-1" d="M73.47,75l1.89,2.31a11.15,11.15,0,0,1,7.17-2.58,11.47,11.47,0,0,1,5.4,1.35l1.39-2.64a14.36,14.36,0,0,0-6.79-1.7A14.11,14.11,0,0,0,73.47,75Z"/><path class="cls-1" d="M70.87,0a70.87,70.87,0,1,0,70.86,70.87A70.95,70.95,0,0,0,70.87,0ZM10.47,70.87A60.35,60.35,0,0,1,80.73,11.29c-3.23,2.71-9,7.09-15.16,9.3C-2.88,45.35,26,93.6,26.93,93.76c0,0,3.84-6.68,9-10.5,32.91-24.18,39.6-52,39.6-52S68.16,64.74,38.89,85.58C32.64,90,28.35,100.75,26.4,111.69A60.14,60.14,0,0,1,10.47,70.87Zm16.67,41.6c1.45-.57,4.2-1.62,5.61-2a36.41,36.41,0,0,1,5.09-14.11A59.65,59.65,0,0,0,56,96c.83-.16,1.65-.33,2.45-.52a25.91,25.91,0,0,1,34.2-33.31,36.54,36.54,0,0,0,1.28-5.34c.16-1.06.3-2.11.4-3.16,2-19.28-5.25-34.88-8.92-41.39a60.35,60.35,0,0,1,29.36,100.07l-10.44-9.65-4.8,4.8,9.43,10.26a60.27,60.27,0,0,1-81.79-5.25Z"/></svg>