<svg id="Ebene_1" data-name="Ebene 1" xmlns="http://www.w3.org/2000/svg" viewBox="0 0 141.73 141.73"><defs><style>.cls-1{fill:#fff;}</style></defs><path class="cls-1" d="M70.87,0a70.87,70.87,0,1,0,70.86,70.87A70.95,70.95,0,0,0,70.87,0ZM10.47,70.87a60.49,60.49,0,0,1,40.41-57v12L24.23,44.17v5.5H79.77v-5.5L53.12,25.86V23c5.34,1.82,10.68-3.37,16-.49V12.91c-5.46-2.94-10.92,2.54-16.38.34a60.28,60.28,0,0,1,57.61,12,6.14,6.14,0,0,0-4.85,6,5.76,5.76,0,0,0,.21,1.56H105a6,6,0,0,0-6,6v2.3a6,6,0,0,0,6,6h18.18a6,6,0,0,0,2.85-.73,60.25,60.25,0,0,1-7.31,61.35c-2.29-1-3.84-2.83-3.84-5a2.79,2.79,0,0,0-2.82-2.55H108c-9,0-12.61-33.62-28.21-39.92v-7.9H24.26v56.92A60.12,60.12,0,0,1,10.47,70.87Zm33.05,53.82a60.77,60.77,0,0,1-13.72-9.58V86.32H43.52v38.37Zm13.65-31v3.38H46.88V93.69ZM46.88,90.34v-4H57.17v4Zm10.29,10.08v3.33H46.88v-3.33Zm0,6.69v3.37H46.88v-3.37Zm0,6.72v3.33H46.88v-3.33Zm0,6.69v3.37H46.88v-3.37Zm0,6.73v2.43a60.17,60.17,0,0,1-7.93-2.43ZM52,82a8.51,8.51,0,1,1,8.5-8.51A8.51,8.51,0,0,1,52,82Zm8.5,48.37v-44H74.25v44.85c-1.12.06-2.25.09-3.38.09A60.71,60.71,0,0,1,60.53,130.36Zm19.26.24V78.85c7.13,9.5,10.72,33.61,26.61,33.61h8.19A60.22,60.22,0,0,1,79.79,130.6Z"/></svg>