<svg id="Ebene_1" data-name="Ebene 1" xmlns="http://www.w3.org/2000/svg" viewBox="0 0 141.73 141.73"><defs><style>.cls-1{fill:#fff;}</style></defs><path class="cls-1" d="M90.55,58.2,79.46,51.48c-1.09,2.48-2,4.59-2.75,6.36l12.13,4.3a5.19,5.19,0,0,0,1.62.33,1.89,1.89,0,0,0,1.67-.84,1.62,1.62,0,0,0,.24-1.31A3.77,3.77,0,0,0,90.55,58.2Z"/><path class="cls-1" d="M70.87,0a70.87,70.87,0,1,0,70.86,70.87A70.95,70.95,0,0,0,70.87,0Zm-23,51.4,8.22,6.48-4.76,5.38-4-11.44A.38.38,0,0,1,47.86,51.4Zm23,79.86c-.86,0-1.72,0-2.57-.06l4.89-23.11-9.1-5.28c-1.19-.73-1.87-1.23-1.78-1.82l0-.27c.22-.64,1.22-.69,2.68-.38l10.64,2.28,22.8,4.72c3.74.91,6.39,0,8.3-2.89l2.43-3.89c1.68-2.89-.06-5.9-2.55-8.41L69,56.22l-.22-.08a8.51,8.51,0,0,0-7.57-1.58L44.49,41.36c-1.34-1.13-3.2-1.49-4-.52L39,42.61a3.77,3.77,0,0,0-.68,4l7.91,22.26-28,31.68a60.35,60.35,0,0,1,52.6-90,59.63,59.63,0,0,1,7.24.45c-.85.9-1.69,1.84-2.25,2.52a5.09,5.09,0,0,0-1.16,3.12l0,13.93c0,.32,0,.64.07.94,2.09-3.67,4-7,5.38-9.41l.11-.19,2.12-10.25a59.9,59.9,0,0,1,14.77,4.9c-5.18,1.89-9.88,3.62-11,4.11C83.47,21.79,83,22.5,81.28,25c-.45.68-9,15.61-14.66,25.59a12.45,12.45,0,0,1,4.21,2l.51.26,3.36,3.2c1.16-2.69,2.58-5.81,4.24-9.06,7.61,2.5,31.72,10.43,34.59,11.19,1.58.42,1.89-.82,1.43-2.3-.18-.56-.52-1.28-.95-2.35a3.7,3.7,0,0,0-1.56-1.87c-1.7-.8-22-9-29.34-12,2.4-4.19,4.09-7,5.31-9.28a6.13,6.13,0,0,1,2.82-2.48l13.33-7.17a60.38,60.38,0,0,1-33.7,110.49Zm-2.18-56a3.45,3.45,0,1,1,3.45,3.45A3.45,3.45,0,0,1,68.69,75.29Z"/></svg>