<svg xmlns="http://www.w3.org/2000/svg" viewBox="0 0 283.46 115.28"><defs><style>.cls-1{fill:#fff;}</style></defs><g id="Ebene_1" data-name="Ebene 1"><ellipse class="cls-1" cx="162.68" cy="70.05" rx="2.23" ry="2.18"/><path class="cls-1" d="M127,78.73l.09,0a5,5,0,0,0,3.49-4.7c0-5.74-6.22-5.74-7.3-5.74h-6.88V91.1h7.27c1.61,0,8.21-.22,8.21-6.59C131.89,80,127.92,79,127,78.73Zm-4-7.3c1.16,0,3.62.45,3.62,3s-2.66,3-3.62,3h-2.77v-6Zm.43,16.5h-3.2v-7.5h3.2c.71,0,4.5.1,4.5,3.69S124.49,87.93,123.45,87.93Z"/><path class="cls-1" d="M13.77,91.1h4.66L12,82a6.72,6.72,0,0,0,5.09-6.65c0-5.61-5-7.11-7.94-7.11H1.8V91.1H5.65V82.45H8ZM5.65,71.63h3c1.06,0,4.4.31,4.4,3.81s-3.37,3.82-4.4,3.82h-3Z"/><path class="cls-1" d="M103.14,35.7H93.45V61.78h7.23V53.17h2.46c2.83,0,10.54-.51,10.54-8.72C113.68,35.94,105.52,35.7,103.14,35.7ZM106.28,46a2.69,2.69,0,0,1-1.23,1,5,5,0,0,1-1.91.33h-2.46V41.58h2.46a5.19,5.19,0,0,1,1.91.32,2.56,2.56,0,0,1,1.23.93,2.75,2.75,0,0,1,.43,1.62A2.71,2.71,0,0,1,106.28,46Z"/><path class="cls-1" d="M80.52,61.78H89l-6.51-9.6c.11,0,5-1.59,5-7.73,0-7.44-6.52-8.75-10.34-8.75H66.62V61.78h7.23V53.17H75.4Zm-4.09-20c1,0,3.45.32,3.45,2.87,0,2.85-2.83,2.94-3.57,2.94H73.85V41.81Z"/><path class="cls-1" d="M155.33,61.78h8.46l-6.52-9.6c.11,0,4.95-1.59,4.95-7.73,0-7.44-6.52-8.75-10.34-8.75H141.43V61.78h7.23V53.17h1.55Zm-4.09-20c1,0,3.45.32,3.45,2.87,0,2.85-2.83,2.94-3.57,2.94h-2.46V41.81Z"/><polygon class="cls-1" points="0 35.7 21.88 35.7 21.88 42.18 14.61 42.18 14.61 61.78 7.3 61.78 7.3 42.18 0 42.18 0 35.7"/><rect class="cls-1" x="27.34" y="35.7" width="7.42" height="26.09"/><polygon class="cls-1" points="59.95 41.58 59.95 35.7 48.77 35.7 46.79 35.7 41.84 35.7 41.84 61.78 46.79 61.78 48.77 61.78 59.95 61.78 59.95 55.89 48.77 55.89 48.77 51.09 59.2 51.09 59.2 45.38 48.77 45.38 48.77 41.58 59.95 41.58"/><path class="cls-1" d="M131,61.78h8.24L125,34,110.74,61.78H119l2.11-4.13h7.71Zm-3.45-9.54h-5.11L125,46.43Z"/><polygon class="cls-1" points="193.34 61.78 182.34 47.92 192.74 35.7 184.28 35.7 175.79 45.72 175.79 35.7 168.26 35.7 168.26 61.78 175.79 61.78 175.79 50.8 184.54 61.78 193.34 61.78"/><polygon class="cls-1" points="7.58 104.9 7.58 104.1 1.8 104.1 1.8 114.86 7.58 114.86 7.58 114.06 2.65 114.06 2.65 109.36 7.27 109.36 7.27 108.56 2.65 108.56 2.65 104.9 7.58 104.9"/><rect class="cls-1" x="13.18" y="104.1" width="0.85" height="10.76"/><polygon class="cls-1" points="28.79 104.1 28.79 115.28 20.62 105.89 20.62 114.86 19.77 114.86 19.77 103.69 27.95 113.11 27.95 104.1 28.79 104.1"/><polygon class="cls-1" points="47.55 104.9 47.55 104.1 41.77 104.1 41.77 114.86 47.55 114.86 47.55 114.06 42.61 114.06 42.61 109.36 47.24 109.36 47.24 108.56 42.61 108.56 42.61 104.9 47.55 104.9"/><path class="cls-1" d="M53.8,111.37a4.61,4.61,0,0,0,.93,1.47,4.09,4.09,0,0,0,1.38,1,4.23,4.23,0,0,0,1.7.34,5.48,5.48,0,0,0,1.4-.17,4.43,4.43,0,0,0,1.15-.51,4.31,4.31,0,0,0,.91-.79v1.13a4.7,4.7,0,0,1-1.47.9,5.75,5.75,0,0,1-2,.3,5.05,5.05,0,0,1-3.74-1.55A5.13,5.13,0,0,1,53,111.7a6.33,6.33,0,0,1,0-4.43,5,5,0,0,1,1.11-1.75,5.09,5.09,0,0,1,1.67-1.15,5.2,5.2,0,0,1,2.07-.4,5.75,5.75,0,0,1,2,.3,4.52,4.52,0,0,1,1.47.9v1.12a3.89,3.89,0,0,0-.92-.79,4.09,4.09,0,0,0-1.15-.5,5,5,0,0,0-1.39-.17,4.23,4.23,0,0,0-1.7.34,4.09,4.09,0,0,0-1.38,1,4.61,4.61,0,0,0-.93,1.47,5.4,5.4,0,0,0,0,3.77Z"/><polygon class="cls-1" points="74.03 104.1 74.03 108.61 67.74 108.61 67.74 104.1 66.9 104.1 66.9 114.86 67.74 114.86 67.74 109.41 74.03 109.41 74.03 114.86 74.89 114.86 74.89 104.1 74.03 104.1"/><polygon class="cls-1" points="79.58 104.1 79.58 104.9 82.41 104.9 82.41 114.86 83.25 114.86 83.25 104.9 86.08 104.9 86.08 104.1 79.58 104.1"/><polygon class="cls-1" points="96.57 104.9 96.57 104.1 90.78 104.1 90.78 114.86 96.57 114.86 96.57 114.06 91.63 114.06 91.63 109.36 96.26 109.36 96.26 108.56 91.63 108.56 91.63 104.9 96.57 104.9"/><path class="cls-1" d="M107.59,114.86h1l-3.28-4.58a4.78,4.78,0,0,0,1.17-.3,3.12,3.12,0,0,0,1.3-1.07,3.27,3.27,0,0,0,0-3.38,3.1,3.1,0,0,0-1.3-1.06,4.62,4.62,0,0,0-1.87-.37h-2.46v10.76H103v-4.51h1.41Zm-4.55-10h1.61a3.63,3.63,0,0,1,1.44.27,2.36,2.36,0,0,1,1,3.39,2.1,2.1,0,0,1-1,.8,3.69,3.69,0,0,1-1.46.27H103Z"/><polygon class="cls-1" points="129.23 104.1 129.23 115.28 121.05 105.89 121.05 114.86 120.2 114.86 120.2 103.69 128.38 113.11 128.38 104.1 129.23 104.1"/><path class="cls-1" d="M142.4,114.86h.95l-4.75-11.17-4.75,11.17h1l1.47-3.61h4.64Zm-1.81-4.41h-4l2-4.81Z"/><polygon class="cls-1" points="145.83 104.1 152.33 104.1 152.33 104.9 149.5 104.9 149.5 114.86 148.66 114.86 148.66 104.9 145.83 104.9 145.83 104.1"/><path class="cls-1" d="M157.8,104.1v7.29a3.52,3.52,0,0,0,.31,1.5,2.33,2.33,0,0,0,.88,1,2.73,2.73,0,0,0,1.41.35,2.77,2.77,0,0,0,1.42-.35,2.27,2.27,0,0,0,.88-1,3.52,3.52,0,0,0,.3-1.5V104.1h.84v7.29a4.36,4.36,0,0,1-.23,1.47,3.29,3.29,0,0,1-.67,1.15,3.12,3.12,0,0,1-1.09.75,4.17,4.17,0,0,1-2.9,0,3.12,3.12,0,0,1-1.09-.75,3.29,3.29,0,0,1-.67-1.15,4.62,4.62,0,0,1-.23-1.47V104.1Z"/><path class="cls-1" d="M174.94,114.86H176l-3.28-4.58a4.9,4.9,0,0,0,1.17-.3,3.09,3.09,0,0,0,1.29-1.07,3.22,3.22,0,0,0,0-3.38,3.07,3.07,0,0,0-1.29-1.06,4.66,4.66,0,0,0-1.87-.37h-2.46v10.76h.84v-4.51h1.41Zm-4.55-10H172a3.63,3.63,0,0,1,1.44.27,2.38,2.38,0,0,1,1,3.39,2.1,2.1,0,0,1-1,.8,3.69,3.69,0,0,1-1.46.27h-1.62Z"/><path class="cls-1" d="M185.81,109.5h4.78a6.26,6.26,0,0,1-.34,2.08,5.75,5.75,0,0,1-1,1.76,4.77,4.77,0,0,1-1.59,1.22,5,5,0,0,1-2.13.44,5.48,5.48,0,0,1-2.12-.4,5.31,5.31,0,0,1-1.71-1.15,5.17,5.17,0,0,1-1.13-1.75,6.33,6.33,0,0,1,0-4.43,5.08,5.08,0,0,1,1.13-1.75,5.15,5.15,0,0,1,1.71-1.15,5.48,5.48,0,0,1,2.12-.4,5.86,5.86,0,0,1,1.83.27,5,5,0,0,1,1.46.79,5.27,5.27,0,0,1,1.11,1.24l-.61.54a3.88,3.88,0,0,0-1.5-1.45,4.57,4.57,0,0,0-2.29-.55,4.45,4.45,0,0,0-1.76.34,4.24,4.24,0,0,0-1.42,1,4.32,4.32,0,0,0-.95,1.48,5.08,5.08,0,0,0-.34,1.89,5,5,0,0,0,.34,1.89,4.19,4.19,0,0,0,.95,1.47,4.13,4.13,0,0,0,1.42,1,4.46,4.46,0,0,0,1.76.35,4.19,4.19,0,0,0,1.63-.31,3.79,3.79,0,0,0,1.26-.85,4.07,4.07,0,0,0,.84-1.23,4.86,4.86,0,0,0,.41-1.47h-3.86Z"/><polygon class="cls-1" points="201.61 104.9 201.61 104.1 195.83 104.1 195.83 114.86 201.61 114.86 201.61 114.06 196.68 114.06 196.68 109.36 201.31 109.36 201.31 108.56 196.68 108.56 196.68 104.9 201.61 104.9"/><polygon class="cls-1" points="216.26 104.1 216.26 115.28 208.09 105.89 208.09 114.86 207.24 114.86 207.24 103.69 215.42 113.11 215.42 104.1 216.26 104.1"/><path class="cls-1" d="M222.81,104.1v7.29a3.38,3.38,0,0,0,.31,1.5,2.27,2.27,0,0,0,.88,1,3,3,0,0,0,2.82,0,2.23,2.23,0,0,0,.89-1,3.52,3.52,0,0,0,.3-1.5V104.1h.84v7.29a4.36,4.36,0,0,1-.23,1.47,3.16,3.16,0,0,1-.68,1.15,3.08,3.08,0,0,1-1.08.75,4.17,4.17,0,0,1-2.9,0,3,3,0,0,1-1.76-1.9,4.36,4.36,0,0,1-.24-1.47V104.1Z"/><path class="cls-1" d="M235.26,113a2.85,2.85,0,0,0,.92.88,2.58,2.58,0,0,0,1.34.32,2.46,2.46,0,0,0,1.19-.26,1.87,1.87,0,0,0,.77-.73,2.05,2.05,0,0,0,.27-1,2.11,2.11,0,0,0-.35-1.26,2.7,2.7,0,0,0-.92-.78,11.27,11.27,0,0,0-1.17-.53c-.31-.11-.63-.25-1-.41a4.51,4.51,0,0,1-.93-.58,2.68,2.68,0,0,1-.69-.84,2.39,2.39,0,0,1-.27-1.18,2.57,2.57,0,0,1,.36-1.37,2.53,2.53,0,0,1,1-.91,3.25,3.25,0,0,1,1.5-.33,3.14,3.14,0,0,1,1.48.32,3.51,3.51,0,0,1,1,.81,4.27,4.27,0,0,1,.63,1l-.74.41a4.07,4.07,0,0,0-.49-.81,2.58,2.58,0,0,0-.79-.67,2.37,2.37,0,0,0-1.18-.27,2.32,2.32,0,0,0-1.07.22,1.61,1.61,0,0,0-.66.6,1.66,1.66,0,0,0-.22.87,1.87,1.87,0,0,0,.16.8,2,2,0,0,0,.49.65,3.75,3.75,0,0,0,.82.53,8.9,8.9,0,0,0,1.14.48,6.06,6.06,0,0,1,.92.41,4.32,4.32,0,0,1,.86.61,2.66,2.66,0,0,1,.65.89,3.14,3.14,0,0,1,0,2.43,2.83,2.83,0,0,1-1.65,1.53,3.78,3.78,0,0,1-1.23.2,3.34,3.34,0,0,1-1.64-.39,3.49,3.49,0,0,1-1.19-1,4.89,4.89,0,0,1-.74-1.39l.69-.43A6.87,6.87,0,0,0,235.26,113Z"/><path class="cls-1" d="M246.51,113a2.85,2.85,0,0,0,.92.88,2.58,2.58,0,0,0,1.34.32,2.46,2.46,0,0,0,1.19-.26,1.81,1.81,0,0,0,.77-.73,2.05,2.05,0,0,0,.27-1,2.11,2.11,0,0,0-.35-1.26,2.7,2.7,0,0,0-.92-.78,10.4,10.4,0,0,0-1.17-.53,9.53,9.53,0,0,1-1-.41,4,4,0,0,1-.93-.58,2.71,2.71,0,0,1-.7-.84,2.39,2.39,0,0,1-.27-1.18,2.49,2.49,0,0,1,.37-1.37,2.44,2.44,0,0,1,1-.91,3.28,3.28,0,0,1,1.5-.33,3.11,3.11,0,0,1,1.48.32,3.38,3.38,0,0,1,1,.81,3.72,3.72,0,0,1,.63,1l-.74.41a3.65,3.65,0,0,0-.49-.81,2.67,2.67,0,0,0-.78-.67,2.41,2.41,0,0,0-1.19-.27,2.35,2.35,0,0,0-1.07.22,1.61,1.61,0,0,0-.66.6,1.75,1.75,0,0,0-.22.87,1.87,1.87,0,0,0,.16.8,2,2,0,0,0,.49.65,3.83,3.83,0,0,0,.83.53,8.17,8.17,0,0,0,1.13.48,5.66,5.66,0,0,1,.92.41,4.7,4.7,0,0,1,.87.61,2.8,2.8,0,0,1,.89,2.12,2.92,2.92,0,0,1-.24,1.2,3,3,0,0,1-.66.93,2.92,2.92,0,0,1-1,.6,3.78,3.78,0,0,1-1.23.2,3.37,3.37,0,0,1-1.64-.39,3.58,3.58,0,0,1-1.19-1,5.16,5.16,0,0,1-.74-1.39l.69-.43A7.58,7.58,0,0,0,246.51,113Z"/><polygon class="cls-1" points="39.8 68.27 39.8 77.08 28.32 77.08 28.32 68.27 24.48 68.27 24.48 91.09 28.32 91.09 28.32 80.63 39.8 80.63 39.8 91.09 43.65 91.09 43.65 68.27 39.8 68.27"/><polygon class="cls-1" points="65.47 71.66 65.47 68.27 51.58 68.27 51.58 91.09 65.47 91.09 65.47 87.7 55.37 87.7 55.37 80.53 64.82 80.53 64.82 77.2 55.37 77.2 55.37 71.66 65.47 71.66"/><path class="cls-1" d="M78,68.27V91.1H74.11V68.27Z"/><path class="cls-1" d="M107.44,68.27v24L90.78,75.77V91.1H87v-24L103.66,83.6V68.27Z"/><path class="cls-1" d="M139.46,75A11.18,11.18,0,0,1,142,71.22a11.72,11.72,0,0,1,3.77-2.46,12.2,12.2,0,0,1,4.69-.88,12.39,12.39,0,0,1,4.72.88,11.76,11.76,0,0,1,3.78,2.46A11,11,0,0,1,161.4,75a13,13,0,0,1,0,9.42,11.28,11.28,0,0,1-2.48,3.79,11.43,11.43,0,0,1-3.76,2.51,12.29,12.29,0,0,1-4.75.89,12.1,12.1,0,0,1-4.72-.89,11.34,11.34,0,0,1-6.23-6.3,13,13,0,0,1,0-9.42Zm3.76,8a7.5,7.5,0,0,0,1.62,2.57,7.19,7.19,0,0,0,2.46,1.7,7.87,7.87,0,0,0,3.11.6,8,8,0,0,0,3.12-.6A7.38,7.38,0,0,0,156,85.5a7.47,7.47,0,0,0,1.61-2.57,9,9,0,0,0,.57-3.25,9.18,9.18,0,0,0-.55-3.24,7.44,7.44,0,0,0-1.6-2.58,7.16,7.16,0,0,0-2.46-1.69,7.88,7.88,0,0,0-3.11-.61,8,8,0,0,0-3.15.61,7.16,7.16,0,0,0-2.46,1.69,7.63,7.63,0,0,0-1.62,2.58,9.52,9.52,0,0,0,0,6.49Z"/><path class="cls-1" d="M173.79,68.27V87.64h9.07V91.1H169.94V68.27Z"/><path class="cls-1" d="M193.39,68.27V87.64h9.06V91.1H189.54V68.27Z"/><polygon class="cls-1" points="223.03 71.66 223.03 68.27 212.92 68.27 211.52 68.27 209.14 68.27 209.14 91.09 211.52 91.09 212.92 91.09 223.03 91.09 223.03 87.7 212.92 87.7 212.92 80.53 222.38 80.53 222.38 77.2 212.92 77.2 212.92 71.66 223.03 71.66"/><path class="cls-1" d="M252.11,68.27v24L235.45,75.77V91.1h-3.78v-24L248.33,83.6V68.27Z"/><ellipse class="cls-1" cx="138.11" cy="70.05" rx="2.23" ry="2.18"/><path class="cls-1" d="M279.4,41.12c-2.39-54.48-78-54.92-79.06-.74l3.26-3c0,.33,0,.65,0,1,0,5.6,1.85,15.46,5.79,20.59a7.42,7.42,0,0,0,5.89,2.81h11.42a5.07,5.07,0,0,0,2.6-.71,2.71,2.71,0,0,1,2.8,0,5.11,5.11,0,0,0,2.61.71h14.94A5.11,5.11,0,0,0,252.3,61a2.74,2.74,0,0,1,2.89,0,5.1,5.1,0,0,0,2.66.74h9.59a6.81,6.81,0,0,0,5.86-3.31c1.17-2,1.94-4.43,2.83-6.23,3.27,1,7.1-.47,7.31-4.42C283.76,44.82,280.49,43.54,279.4,41.12Zm-5.39,7c-3.5,11.74-4.53,10.3-14.45,10.2h-1.71c-2.66-.48-2-5.55-5-5.89-3.27.14,0,5.7-3.27,5.89H234.69c-3-.39-.88-3.74.21-5.09,2.66-4.07-11.09-4.07-8.44,0,1.09,1.35,3.21,4.7.22,5.09h-12c-3.91-.33-4.06-5.61-4.87-8.63C208.37,41.13,215.69,34.38,224,35c17.59-.94,19.77,17.5,34.12,10.32-4.94-4.63.95-6,5.09-5.63h0c-8.42-5.77-11.07-16.67-19.6-22.34-4.75-3.63-11.14-6.78-16.9-3.71A35.91,35.91,0,0,1,240,20.24h0c1,.78,1.92,1.61,2.82,2.48h0a35.78,35.78,0,0,1,9.31,15.22c-6.41,5.72-4.3.77-9.8-3.24a2.94,2.94,0,0,0,.91-2.39,3,3,0,0,1-3.77-2.67,3,3,0,0,0-2,1.77,26.21,26.21,0,0,0-23.27-.88,26.8,26.8,0,0,1,4-4.51A26.21,26.21,0,0,0,204,32.59c.09-.65.21-1.3.34-1.94,10.18-40.87,69.8-34.71,71,8.41h0a12.27,12.27,0,0,0,4.27,7.4C282.05,50.31,275.81,49.25,274,48.09Z"/></g></svg>